# xmcd database file
#
# Track frame offsets:
# 195
# 31002
# 55947
# 84060
# 110837
# 135175
# 161457
# 179220
# 200935
# 221072
# 246420
# 273542
# 274615
# 275980
# 277377
# 278745
# 279895
# 281020
# 282280
# 283382
# 284570
# 285827
# 287195
# 293220
# 302842
# 307202
#
# Disc length: 4142 seconds
#
# Revision: 0
# Processed by: cddbd v1.4PL0 Copyright (c) Steve Scherf et al.
# Submitted via: CD-Runner 2002.15
#
DISCID=c3102c1a
DTITLE=Kathy Mattea - Artist Feature Kit For Love Travels
DYEAR=1997
DGENRE=Country
TTITLE0=Vignette For "Love Travels"
TTITLE1=Vignette For "Sending Me Angels"
TTITLE2=Vignette For "Patiently Waiting"
TTITLE3=Vignette For "If That's What You Call Love"
TTITLE4=Vignette For "Further And Further Away"
TTITLE5=Vignette For "455 Rocket"
TTITLE6=Vignette For "I'm On Your Side"
TTITLE7=Vignette For "The Bridge"
TTITLE8=Vignette For "The Roads To The River"
TTITLE9=Vignette For "The End Of The Line"
TTITLE10=Vignette For "Beautiful Fool"
TTITLE11=Kathy's Intro For "Love Travels"
TTITLE12=Kathy's Intro For "Sending Me Angels"
TTITLE13=Kathy's Intro For "Patiently Waiting"
TTITLE14=Kathy's Intro For "If That's What You Call Love"
TTITLE15=Kathy's Intro For "Further And Further Away"
TTITLE16=Kathy's Intro For "455 Rocket"
TTITLE17=Kathy's Intro For "I'm On Your Side"
TTITLE18=Kathy's Intro For "The Bridge"
TTITLE19=Kathy's Intro For "The Roads To The River"
TTITLE20=Kathy's Intro For "The End Of The Line"
TTITLE21=Kathy's Intro For "Beautiful Fool"
TTITLE22=Various Liners
TTITLE23=Various ID's
TTITLE24=Various "Wild Tracks"
TTITLE25=Various Holiday Greetings
EXTD=
EXTT0=
EXTT1=
EXTT2=
EXTT3=
EXTT4=
EXTT5=
EXTT6=
EXTT7=
EXTT8=
EXTT9=
EXTT10=
EXTT11=
EXTT12=
EXTT13=
EXTT14=
EXTT15=
EXTT16=
EXTT17=
EXTT18=
EXTT19=
EXTT20=
EXTT21=
EXTT22=
EXTT23=
EXTT24=
EXTT25=
PLAYORDER=
